HIERARCHY
ROOT Hips
{
  OFFSET 189.248 101.436 35.0287
  CHANNELS 6 Xposition Yposition Zposition Zrotation Xrotation Yrotation
  JOINT RightUpLeg
  {
    OFFSET -8.9458 -8.66707 0.101652
    CHANNELS 3 Zrotation Xrotation Yrotation
    JOINT RightLeg
    {
      OFFSET 0 -44.4227 1.3727
      CHANNELS 3 Zrotation Xrotation Yrotation
      JOINT RightFoot
      {
        OFFSET 0.253549 -42.0924 -1.46059
        CHANNELS 3 Zrotation Xrotation Yrotation
        JOINT RightToes
        {
          OFFSET 0.04 -4.41509 8.4991
          CHANNELS 3 Zrotation Xrotation Yrotation
          End Site
          {
            OFFSET -0.08 -0.137448 9.77979
          }
        }
      }
    }
  }
  JOINT Spine
  {
    OFFSET 0 11.8905 0
    CHANNELS 3 Zrotation Xrotation Yrotation
    JOINT Spine1
    {
      OFFSET 0 25.6574 0.127663
      CHANNELS 3 Zrotation Xrotation Yrotation
      JOINT HEad
      {
        OFFSET 0 8.73416 0.011341
        CHANNELS 3 Zrotation Xrotation Yrotation
        End Site
        {
          OFFSET -0.29 12.7742 2.51395
        }
      }
      JOINT LeftShoulder1
      {
        OFFSET 8.99 -0.362252 -0.22
        CHANNELS 3 Zrotation Xrotation Yrotation
        JOINT LeftArm
        {
          OFFSET 10.2827 -0.00338 0.322123
          CHANNELS 3 Zrotation Xrotation Yrotation
          JOINT LeftForeArm
          {
            OFFSET 32.7669 0.099144 -1.42434
            CHANNELS 3 Zrotation Xrotation Yrotation
            JOINT LeftHand
            {
              OFFSET 27.5643 0.085362 1.02216
              CHANNELS 3 Zrotation Xrotation Yrotation
              End Site
              {
                OFFSET 16.7443 -0.6 1.50291
              }
            }
          }
        }
      }
      JOINT RightShoulder
      {
        OFFSET -8.99 -0.362252 -0.22
        CHANNELS 3 Zrotation Xrotation Yrotation
        JOINT RightArm
        {
          OFFSET -10.2827 -0.00338 0.322123
          CHANNELS 3 Zrotation Xrotation Yrotation
          JOINT RightForeArm
          {
            OFFSET -32.8971 0.099144 -1.42434
            CHANNELS 3 Zrotation Xrotation Yrotation
            JOINT RightHand
            {
              OFFSET -27.4921 0.085362 1.02216
              CHANNELS 3 Zrotation Xrotation Yrotation
              End Site
              {
                OFFSET -16.6312 -0.6 1.50291
              }
            }
          }
        }
      }
    }
  }
  JOINT LeftUpLeg
  {
    OFFSET 8.9458 -8.66707 0.101652
    CHANNELS 3 Zrotation Xrotation Yrotation
    JOINT LeftLeg
    {
      OFFSET 0 -44.4227 1.3727
      CHANNELS 3 Zrotation Xrotation Yrotation
      JOINT LeftFoot
      {
        OFFSET -0.253549 -42.0924 -1.46059
        CHANNELS 3 Zrotation Xrotation Yrotation
        JOINT LeftToes
        {
          OFFSET -0.04 -4.41509 8.4991
          CHANNELS 3 Zrotation Xrotation Yrotation
          End Site
          {
            OFFSET 0.08 -0.047448 9.77979
          }
        }
      }
    }
  }
}
MOTION
Frames:	12
Frame Time:	0.0166667
0	104.011	0	1.23497	-1.86378	158.741	0.248807	-1.45172	3.421	1.44085	8.86844	-12.3094	3.48731	-8.73468	-0.969641	0.0462048	0.000533964	0.662642	0.0137616	-2.92618	-0.434296	0.00527272	-5.8496	-0.869835	6.40821	7.17552	46.7259	-7.95E-16	-7.95E-16	-3.18E-15	2.56401	-9.12662	-6.80934	-1.01768	6.90613	-4.77058	1.85882	9.35051	6.18318	-7.95E-16	-7.95E-16	-3.18E-15	3.23007	-12.3955	1.02565	2.11154	14.6695	-0.511788	1.17309	11.1276	-1.06772	0.56867	0.440099	16.8958	0.663065	8.24013	2.30221	-5.98205	-16.6315	-1.18388	1.46E-14	3.26E-14	5.96E-15
-0.0009	104.014	0.009	1.243	-1.85862	158.739	0.263244	-1.44631	3.38992	1.42812	8.86607	-12.2815	3.49098	-8.72601	-0.774633	0.0462048	0.000533964	0.662642	0.0129463	-2.92712	-0.437496	0.00346745	-5.85148	-0.876292	6.41258	7.21004	46.735	3.98E-16	0.00E+00	-3.18E-15	2.58599	-9.09119	-6.81559	-1.02962	6.91987	-4.74516	1.83207	9.33204	6.20684	3.98E-16	0.00E+00	-3.18E-15	3.18603	-12.391	1.04896	2.10309	14.6898	-0.512597	1.17429	11.1296	-1.08376	0.574437	0.443	16.8858	0.665308	8.23897	2.31233	-5.98384	-16.62	-1.18696	1.51E-14	3.10E-14	5.96E-15
-0.0027	104.015	0.018	1.24762	-1.85956	158.739	0.276442	-1.44588	3.36635	1.41792	8.86495	-12.2718	3.49488	-8.72495	-0.899256	0.0462048	0.000533964	0.662642	0.0121363	-2.93012	-0.441416	0.00203675	-5.8571	-0.883748	6.42185	7.22991	46.7257	-4.41E-32	-7.95E-16	-3.18E-15	2.60212	-9.05627	-6.82207	-1.03638	6.88947	-4.72154	1.85486	9.30577	6.21448	-4.41E-32	-7.95E-16	-3.18E-15	3.11344	-12.3618	1.06281	2.11049	14.6812	-0.512175	1.14422	11.1291	-1.06213	0.576999	0.436537	16.877	0.668348	8.23681	2.3112	-5.9818	-16.6105	-1.1883	1.45E-14	3.26E-14	5.96E-15
-0.006	104.015	0.026	1.24861	-1.86326	158.738	0.263405	-1.45392	3.36553	1.43419	8.86339	-12.2835	3.49828	-8.72734	-0.657819	0.0462048	0.000533964	0.662642	0.0111043	-2.93403	-0.444742	0.0003434	-5.8645	-0.890953	6.43649	7.23674	46.6965	-3.98E-16	0.00E+00	-3.18E-15	2.62692	-9.04017	-6.81707	-1.0383	6.85825	-4.71709	1.85893	9.28658	6.19958	-3.98E-16	0.00E+00	-3.18E-15	3.0357	-12.3014	1.08042	2.12884	14.6355	-0.528438	1.10764	11.1082	-1.03809	0.578339	0.426099	16.8761	0.672864	8.23556	2.29417	-5.97828	-16.6062	-1.1895	1.37E-14	3.34E-14	5.57E-15
-0.014	104.015	0.033	1.25235	-1.86725	158.738	0.258053	-1.46556	3.35681	1.43892	8.8627	-12.2801	3.50103	-8.7292	-0.510756	0.0462048	0.000533964	0.662642	0.00999397	-2.93811	-0.446401	-0.0013481	-5.87341	-0.894838	6.44775	7.23208	46.6597	-1.19E-15	-7.95E-16	-3.18E-15	2.64571	-9.03494	-6.80143	-1.03032	6.87246	-4.73152	1.84973	9.2932	6.18271	-1.19E-15	-7.95E-16	-3.18E-15	2.97127	-12.2331	1.10534	2.14378	14.608	-0.571688	1.11258	11.1076	-1.04701	0.580634	0.417669	16.8765	0.673027	8.23439	2.28789	-5.97475	-16.6024	-1.19107	1.35E-14	3.10E-14	5.57E-15
-0.0231	104.015	0.039	1.25861	-1.86902	158.739	0.255463	-1.46865	3.34632	1.44291	8.86263	-12.2725	3.50073	-8.7386	-0.718518	0.0462048	0.000533964	0.662642	0.00884724	-2.94227	-0.447217	-0.00301609	-5.88174	-0.896623	6.4458	7.21776	46.6268	-8.83E-32	7.95E-16	6.36E-15	2.64893	-9.02401	-6.79193	-1.01376	6.9053	-4.74132	1.88063	9.30449	6.17676	-8.83E-32	7.95E-16	6.36E-15	2.90952	-12.1688	1.12461	2.14457	14.6208	-0.610735	1.14994	11.1447	-1.0813	0.585624	0.414824	16.8864	0.667758	8.2334	2.27556	-5.97268	-16.6016	-1.19315	1.45E-14	3.34E-14	5.17E-15
-0.0297	104.015	0.044	1.26411	-1.86609	158.74	0.253783	-1.46628	3.32643	1.44767	8.86336	-12.2575	3.50127	-8.74156	-0.82153	0.0462048	0.000533964	0.662642	0.00773216	-2.94562	-0.447623	-0.00465242	-5.88793	-0.89757	6.44103	7.20665	46.591	-3.98E-16	-2.39E-15	-3.18E-15	2.64486	-9.00483	-6.79887	-1.00014	6.93738	-4.73519	1.93918	9.32172	6.17482	-3.98E-16	-2.39E-15	-3.18E-15	2.83609	-12.1127	1.12819	2.14121	14.631	-0.631271	1.16428	11.1707	-1.10539	0.58994	0.418795	16.8909	0.662076	8.23252	2.26714	-5.97205	-16.6019	-1.19536	1.25E-14	3.34E-14	5.57E-15
-0.033	104.015	0.046	1.26787	-1.85959	158.742	0.252828	-1.46148	3.32219	1.44938	8.86422	-12.2593	3.50363	-8.7365	-0.723427	0.0462048	0.000533964	0.662642	0.00671129	-2.94795	-0.448051	-0.00618822	-5.89309	-0.897943	6.44195	7.21217	46.5494	1.19E-15	-7.95E-16	-3.18E-15	2.66188	-8.9889	-6.79471	-1.01554	6.99636	-4.73974	1.99325	9.3206	6.17061	1.19E-15	-7.95E-16	-3.18E-15	2.76458	-12.0745	1.13091	2.1392	14.6275	-0.638941	1.13693	11.1525	-1.09363	0.595799	0.427931	16.8938	0.654283	8.2317	2.26587	-5.97181	-16.6001	-1.19732	1.42E-14	3.18E-14	4.77E-15
-0.0341	104.015	0.05	1.2727	-1.84675	158.744	0.252364	-1.45113	3.33512	1.4533	8.86542	-12.2741	3.50496	-8.7245	-0.620984	0.0462048	0.000533964	0.662642	0.0058724	-2.94938	-0.448393	-0.00751791	-5.89598	-0.898	6.45842	7.23346	46.4963	1.32E-31	2.39E-15	-3.18E-15	2.68131	-8.9732	-6.78569	-1.02589	7.06802	-4.74846	1.9933	9.33671	6.15208	1.32E-31	2.39E-15	-3.18E-15	2.70264	-12.0114	1.13335	2.14191	14.598	-0.649801	1.10415	11.1257	-1.09323	0.598149	0.444135	16.9078	0.650207	8.231	2.26235	-5.97174	-16.5933	-1.19866	1.48E-14	3.10E-14	5.17E-15
-0.0348	104.016	0.053	1.27609	-1.83738	158.75	0.252497	-1.44444	3.35209	1.45927	8.8672	-12.2979	3.50586	-8.72303	-0.706993	0.0462048	0.000533964	0.662642	0.00521433	-2.95077	-0.450155	-0.00863233	-5.90146	-0.89801	6.47773	7.26929	46.4398	-1.99E-15	2.39E-15	0.00E+00	2.70414	-8.94955	-6.77001	-1.0198	7.10763	-4.75872	1.9818	9.36368	6.13822	-1.99E-15	2.39E-15	0.00E+00	2.64519	-11.9717	1.13427	2.14981	14.6051	-0.67194	1.07911	11.1079	-1.10542	0.596992	0.453318	16.911	0.648247	8.23037	2.26163	-5.97174	-16.5848	-1.19903	1.32E-14	3.18E-14	5.96E-15
-0.0355	104.015	0.055	1.27979	-1.83011	158.756	0.252731	-1.44306	3.35296	1.4637	8.87273	-12.3079	3.50468	-8.72452	-0.648899	0.0462048	0.000533964	0.662642	0.00485521	-2.95212	-0.452658	-0.0093856	-5.90573	-0.89823	6.4832	7.30749	46.3966	-7.95E-16	3.18E-15	6.36E-15	2.70019	-8.93408	-6.75514	-0.987098	7.10421	-4.76431	2.01188	9.37035	6.14839	-7.95E-16	3.18E-15	6.36E-15	2.59271	-11.9501	1.13222	2.15836	14.5881	-0.698111	1.09716	11.1101	-1.13213	0.595983	0.458668	16.8975	0.644016	8.22972	2.27954	-5.97171	-16.5778	-1.1981	1.48E-14	3.02E-14	4.37E-15
-0.0364	104.015	0.06	1.28577	-1.82279	158.764	0.253179	-1.44367	3.35334	1.46861	8.87932	-12.3239	3.50186	-8.72487	-0.867888	0.0462048	0.000533964	0.662642	0.00489645	-2.95341	-0.455545	-0.00964025	-5.90549	-0.898915	6.47899	7.34923	46.3687	-3.98E-16	-7.95E-16	6.36E-15	2.70351	-8.92933	-6.74775	-0.972202	7.10084	-4.76319	2.06079	9.34928	6.16837	-3.98E-16	-7.95E-16	6.36E-15	2.53692	-11.9697	1.12322	2.16152	14.5007	-0.714831	1.12972	11.1191	-1.1456	0.597987	0.461556	16.881	0.64144	8.22917	2.28885	-5.97097	-16.5754	-1.19352	1.49E-14	3.10E-14	5.57E-15
